<?xml version="1.0" standalone="no"?>
<!DOCTYPE svg PUBLIC "-//W3C//DTD SVG 20010904//EN"
 "http://www.w3.org/TR/2001/REC-SVG-20010904/DTD/svg10.dtd">
<svg version="1.0" xmlns="http://www.w3.org/2000/svg"
 width="1139.000000pt" height="810.000000pt" viewBox="0 0 1003.000000 679.000000"
 preserveAspectRatio="xMidYMid meet">
<metadata>
Created by potrace 1.16, written by Peter Selinger 2001-2019
</metadata>
<g transform="translate(0.000000,679.000000) scale(0.100000,-0.100000)"
fill="#000000" stroke="none">
<path d="M3098 6455 c-31 -17 -48 -44 -48 -73 0 -16 -11 -23 -52 -32 -67 -16
-85 -25 -93 -49 -3 -11 20 -86 59 -185 l64 -166 -128 0 -128 0 54 156 c60 173
58 164 45 164 -10 0 -19 -22 -85 -212 l-44 -128 158 0 159 0 -24 63 c-13 34
-42 109 -64 166 -53 136 -53 147 2 161 23 6 49 13 59 16 9 3 22 -4 30 -15 8
-11 26 -25 41 -32 l27 -12 0 -299 0 -298 -115 0 c-70 0 -115 -4 -115 -10 0 -6
87 -10 240 -10 148 0 240 4 240 10 0 5 -49 11 -112 12 l-113 3 -2 295 -3 295
33 15 c23 11 36 26 46 57 15 41 17 42 84 59 43 10 72 13 78 7 8 -8 50 -140 99
-315 l19 -68 -125 0 c-71 0 -124 4 -124 9 0 6 22 73 49 150 34 95 46 141 37
141 -10 0 -109 -261 -119 -315 -2 -12 293 -20 303 -8 6 7 -62 258 -102 377
-19 58 -34 63 -119 43 l-72 -18 -27 26 c-33 32 -77 39 -112 20z m95 -33 c24
-21 22 -77 -3 -102 -57 -57 -158 29 -107 92 31 39 72 43 110 10z"/>
<path d="M2122 6015 c-1 -86 -6 -135 -14 -143 -9 -9 -194 -12 -769 -12 -417 0
-764 3 -773 6 -9 3 -16 14 -17 23 0 10 -2 12 -6 3 -3 -7 1 -19 7 -27 11 -13
118 -15 786 -15 762 0 773 0 784 20 6 12 9 70 7 147 l-3 128 -2 -130z"/>
<path d="M3223 5955 c8 -50 43 -94 91 -116 71 -32 135 -19 189 39 34 35 53
100 32 109 -20 7 -35 -5 -35 -29 0 -11 -15 -35 -34 -54 -29 -29 -41 -34 -81
-34 -60 0 -101 28 -116 81 -9 28 -18 39 -32 39 -17 0 -19 -5 -14 -35z"/>
<path d="M2740 5881 c0 -33 33 -85 73 -115 21 -15 43 -21 86 -21 48 0 64 5 96
29 56 43 88 136 46 136 -12 0 -20 -9 -24 -28 -8 -41 -44 -80 -83 -91 -67 -18
-138 22 -150 86 -4 23 -12 33 -25 33 -14 0 -19 -7 -19 -29z"/>
<path d="M2498 5323 l-38 -4 -1 -112 c0 -110 0 -473 1 -715 l0 -122 3108 2
3107 3 3 478 2 477 -3072 -2 c-1690 -1 -3090 -3 -3110 -5z m6150 -115 l-3
-103 -3077 -3 -3078 -2 0 105 0 105 3080 0 3081 0 -3 -102z m-3 -233 l0 -100
-3077 -3 -3078 -2 0 105 0 105 3078 -2 3077 -3 0 -100z m3 -233 l3 -102 -3083
2 -3083 3 -3 89 c-2 49 -1 95 2 103 5 11 529 13 3083 11 l3078 -3 3 -103z m0
-239 l3 -103 -3081 0 -3080 0 0 105 0 105 3078 -2 3077 -3 3 -102z"/>
<path d="M2460 4183 c0 -65 -1 -174 -1 -243 0 -69 0 -180 0 -248 l1 -122 3108
2 3107 3 3 363 2 362 -3110 0 -3110 0 0 -117z m6188 -10 l3 -103 -3081 0
-3080 0 0 105 0 105 3078 -2 3077 -3 3 -102z m0 -240 l3 -103 -3081 0 -3080 0
0 105 0 105 3078 -2 3077 -3 3 -102z m2 -233 l0 -100 -3080 0 -3080 0 0 100 0
100 3080 0 3080 0 0 -100z"/>
<path d="M2460 3140 l0 -130 3108 2 3107 3 3 128 3 127 -3111 0 -3110 0 0
-130z m6188 3 l3 -103 -3081 0 -3080 0 0 105 0 105 3078 -2 3077 -3 3 -102z"/>
<path d="M2458 2108 c-2 -66 -2 -177 0 -245 l3 -123 3107 2 3107 3 3 243 2
242 -3109 0 -3110 0 -3 -122z m6187 -3 l0 -100 -3077 -3 -3078 -2 0 105 0 105
3078 -2 3077 -3 0 -100z m3 -232 l3 -103 -3081 0 -3080 0 0 105 0 105 3078 -2
3077 -3 3 -102z"/>
<path d="M2460 1075 c-1 -63 -1 -171 -1 -240 0 -69 0 -179 1 -245 l0 -120
3108 2 3107 3 3 358 2 357 -3110 0 -3110 0 0 -115z m6185 -10 l0 -100 -3077
-3 -3078 -2 0 105 0 105 3078 -2 3077 -3 0 -100z m0 -230 l0 -100 -3077 -3
-3078 -2 0 105 0 105 3078 -2 3077 -3 0 -100z m3 -232 l3 -103 -3081 0 -3080
0 0 105 0 105 3078 -2 3077 -3 3 -102z"/>
</g>
</svg>
